<svg width="270" height="56" viewBox="0 0 270 56" fill="none" xmlns="http://www.w3.org/2000/svg">
<g clip-path="url(#clip0_13_404)">
<path d="M51.8773 18.5259C52.051 18.3705 52.2509 18.247 52.4676 18.1612L46.0071 7.41241C45.8319 7.56681 45.6308 7.68903 45.4131 7.77343L51.8773 18.5259Z" fill="#334796"/>
<path d="M9.72878 43.5967C9.67224 43.8234 9.57584 44.0381 9.44409 44.231L22.7463 51.2078C22.801 50.9806 22.8957 50.7649 23.0259 50.5709L9.72878 43.5967Z" fill="#334796"/>
<path d="M26.9773 2.12642C26.8774 1.91554 26.8158 1.68853 26.7956 1.45605L11.7815 6.08915C11.881 6.30019 11.942 6.52734 11.9615 6.75985L26.9773 2.12642Z" fill="#334796"/>
<path d="M52.7278 21.923L51.9709 34.1783C52.1991 34.122 52.4359 34.1096 52.6687 34.1415L53.4208 21.9676C53.1891 21.9966 52.9541 21.982 52.7278 21.9247V21.923Z" fill="#334796"/>
<path d="M26.9766 50.7478L26.5376 51.0301C26.5933 51.1926 26.6274 51.3616 26.6389 51.533L43.0343 47.9127C42.946 47.6968 42.8968 47.467 42.889 47.2339L26.9766 50.7478Z" fill="#334796"/>
<path d="M9.6347 8.87177C9.40447 8.82949 9.18363 8.74646 8.98258 8.62659L1.78589 23.743C2.01153 23.8018 2.22491 23.9003 2.41606 24.0338L9.6347 8.87177Z" fill="#334796"/>
<path d="M50.8844 37.3427L45.5303 45.2992C45.7506 45.3774 45.9553 45.4942 46.1348 45.644L51.4133 37.8003C51.2114 37.68 51.0324 37.5251 50.8844 37.3427V37.3427Z" fill="#334796"/>
<path d="M2.36092 27.3128C2.16532 27.4402 1.94861 27.5316 1.72095 27.583L6.864 41.3773C7.06855 41.2659 7.29133 41.1919 7.52186 41.1588L2.36092 27.3128Z" fill="#334796"/>
<path d="M42.7397 5.67895C42.7689 5.44752 42.8391 5.22315 42.947 5.01636L30.7407 1.36432C30.7324 1.59805 30.6823 1.8284 30.5928 2.04447L42.7397 5.67895Z" fill="#334796"/>
<path d="M30.6329 12.6252C30.6569 12.6252 30.6799 12.6279 30.7035 12.629L29.4394 3.14392C29.2239 3.22293 28.9962 3.26362 28.7667 3.26415H28.7549L30.0166 12.7259C30.2153 12.6597 30.4234 12.6257 30.6329 12.6252Z" fill="#334796"/>
<path d="M43.2775 7.30021C43.1154 7.13171 42.9843 6.936 42.8901 6.72205L32.1802 13.375C32.3258 13.5577 32.438 13.7648 32.5115 13.9866L43.2775 7.30021Z" fill="#334796"/>
<path d="M44.3391 7.87335L44.2908 13.8759C44.5204 13.8343 44.7557 13.8359 44.9848 13.8806L45.0331 7.87808C44.8035 7.91969 44.5681 7.91809 44.3391 7.87335V7.87335Z" fill="#334796"/>
<path d="M32.4451 15.3959L42.6559 16.0474C42.6471 15.9735 42.6426 15.8992 42.6423 15.8248C42.643 15.6663 42.6628 15.5085 42.7011 15.3547L32.6062 14.7107C32.5941 14.9469 32.5395 15.179 32.4451 15.3959Z" fill="#334796"/>
<path d="M51.2825 19.4902C51.3426 19.2648 51.4423 19.0518 51.577 18.8614L46.5414 16.3011C46.4856 16.5278 46.39 16.7428 46.259 16.936L51.2825 19.4902Z" fill="#334796"/>
<path d="M46.15 26.6472C46.1773 26.6472 46.2037 26.6502 46.2303 26.6512L45.2307 17.7089C45.0344 17.7727 44.8293 17.8053 44.6228 17.8055C44.5961 17.8055 44.5701 17.8024 44.5435 17.8014L45.5428 26.7438C45.7388 26.6799 45.9438 26.6474 46.15 26.6472V26.6472Z" fill="#334796"/>
<path d="M47.6792 27.3703L52.2383 21.7339C52.0339 21.6204 51.8509 21.4718 51.698 21.2949L47.1497 26.9195C47.3512 27.0376 47.5304 27.1902 47.6792 27.3703V27.3703Z" fill="#334796"/>
<path d="M44.9898 27.0251L32.3127 15.6441C32.1898 15.8422 32.033 16.0171 31.8494 16.1608L44.5065 27.5253C44.6372 27.3316 44.8007 27.1623 44.9898 27.0251Z" fill="#334796"/>
<path d="M47.1355 30.3396L50.8014 34.971C50.936 34.7788 51.1033 34.6118 51.2958 34.4776L47.6681 29.8938C47.518 30.0724 47.3378 30.2233 47.1355 30.3396V30.3396Z" fill="#334796"/>
<path d="M37.3592 42.9422L45.4232 30.4633C45.2064 30.3771 45.0065 30.2533 44.8328 30.0976L36.8047 42.5217C37.0128 42.6282 37.2005 42.7705 37.3592 42.9422Z" fill="#334796"/>
<path d="M37.8671 44.01L50.7654 37.1804C50.6379 36.9843 50.5464 36.767 50.4952 36.5388L37.6499 43.3407C37.762 43.5489 37.8355 43.7757 37.8671 44.01V44.01Z" fill="#334796"/>
<path d="M42.8948 46.9814C42.9161 46.7492 42.9787 46.5227 43.0795 46.3124L37.801 44.8656C37.7301 45.0937 37.6185 45.3069 37.4714 45.4951L42.8948 46.9814Z" fill="#334796"/>
<path d="M34.2049 45.286L26.197 50.4223C26.3059 50.5562 26.3967 50.7038 26.4672 50.8613L26.9738 50.7492L34.6581 45.8186C34.4767 45.6693 34.3233 45.4889 34.2049 45.286V45.286Z" fill="#334796"/>
<path d="M26.5351 51.0301L26.9741 50.7478L26.4675 50.8599C26.4934 50.9153 26.5159 50.972 26.5351 51.0301Z" fill="#334796"/>
<path d="M22.0727 42.3354C22.0728 42.5387 22.0414 42.7408 21.9795 42.9345L34.0075 44.8257C33.9566 44.6493 33.9306 44.4666 33.9302 44.283C33.9302 44.2253 33.9339 44.1689 33.9386 44.1141L22.0683 42.2459C22.0697 42.276 22.0727 42.3053 22.0727 42.3354Z" fill="#334796"/>
<path d="M30.4928 30.7275C30.2937 30.8489 30.0746 30.934 29.8457 30.9787L34.7267 42.7011C34.9136 42.5606 35.124 42.4545 35.3481 42.3877L30.4928 30.7275Z" fill="#334796"/>
<path d="M31.4494 29.0363C31.4492 29.1629 31.4369 29.2892 31.4126 29.4135L44.2231 29.0704C44.1888 28.9245 44.1712 28.7751 44.1708 28.6253C44.1713 28.5422 44.1771 28.4593 44.188 28.377L31.4224 28.7188C31.44 28.8237 31.449 28.9299 31.4494 29.0363V29.0363Z" fill="#334796"/>
<path d="M30.1933 16.5327L29.344 27.0636C29.3859 27.0609 29.4277 27.0572 29.4703 27.0572C29.6612 27.0573 29.8511 27.0852 30.0339 27.14L30.887 16.5654C30.6557 16.5977 30.4204 16.5862 30.1933 16.5317V16.5327Z" fill="#334796"/>
<path d="M27.931 27.7954L13.284 19.1202C13.197 19.3365 13.0725 19.5358 12.9163 19.7088L27.5967 28.4033C27.6714 28.1825 27.7846 27.9767 27.931 27.7954V27.7954Z" fill="#334796"/>
<path d="M28.665 14.8142L13.2842 17.654C13.3706 17.8706 13.4178 18.1008 13.4237 18.3338L28.8619 15.4835C28.7566 15.274 28.6899 15.0473 28.665 14.8142V14.8142Z" fill="#334796"/>
<path d="M29.0803 13.3809L22.5655 9.22363C22.4755 9.43869 22.3484 9.63622 22.1899 9.8072L28.7511 13.9949C28.8236 13.7723 28.9351 13.5644 29.0803 13.3809V13.3809Z" fill="#334796"/>
<path d="M22.3913 7.38532L27.4908 2.79747C27.3131 2.64707 27.1632 2.46656 27.048 2.26422L21.9148 6.88178C22.1019 7.02042 22.2632 7.19086 22.3913 7.38532V7.38532Z" fill="#334796"/>
<path d="M18.7574 8.46815C18.7582 8.25884 18.7924 8.051 18.8587 7.85249L11.9694 6.98254C11.9632 7.21644 11.9153 7.44734 11.8279 7.66439L18.7635 8.54008C18.7601 8.5161 18.7574 8.49246 18.7574 8.46815Z" fill="#334796"/>
<path d="M11.4731 16.4087L10.6015 8.8078C10.4044 8.87237 10.1983 8.90531 9.99091 8.9054C9.96491 8.9054 9.93958 8.9027 9.91357 8.90168L10.7876 16.5232C10.9994 16.4471 11.2227 16.4081 11.4478 16.4077C11.4563 16.4077 11.4644 16.4087 11.4731 16.4087Z" fill="#334796"/>
<path d="M13.0263 17.1987L19.6253 10.105C19.4328 9.97348 19.265 9.80909 19.1295 9.61938L12.5198 16.7252C12.7149 16.8523 12.8864 17.0126 13.0263 17.1987Z" fill="#334796"/>
<path d="M9.57702 19.0281L2.63599 24.212C2.80602 24.3714 2.94673 24.5595 3.05171 24.7676L9.91744 19.6404C9.76851 19.4581 9.65324 19.2508 9.57702 19.0281V19.0281Z" fill="#334796"/>
<path d="M11.4476 20.3658C11.2388 20.3656 11.0315 20.3322 10.8333 20.2668L9.90894 30.4705C10.0546 30.4362 10.2037 30.4187 10.3534 30.4182C10.4388 30.4187 10.5241 30.4249 10.6087 30.4368L11.5205 20.3621C11.4969 20.3631 11.4729 20.3658 11.4476 20.3658Z" fill="#334796"/>
<path d="M3.04053 26.5639C2.93276 26.7707 2.78928 26.9569 2.6167 27.1137L8.52332 31.6455C8.61295 31.4293 8.74021 31.2307 8.89919 31.0589L3.04053 26.5639Z" fill="#334796"/>
<path d="M27.4992 29.1936L12.2261 31.7623C12.2962 31.9668 12.3321 32.1816 12.3325 32.3978C12.3325 32.4147 12.3304 32.4316 12.3301 32.4485L27.6768 29.8673C27.5777 29.6552 27.5176 29.427 27.4992 29.1936V29.1936Z" fill="#334796"/>
<path d="M9.43811 34.1509L7.89307 41.1392C8.12608 41.148 8.35568 41.1981 8.5712 41.2871L10.1031 34.3592C9.8708 34.3298 9.64562 34.2593 9.43811 34.1509V34.1509Z" fill="#334796"/>
<path d="M18.1291 42.104L9.71997 42.6008C9.76582 42.7682 9.78932 42.9409 9.78988 43.1145C9.78988 43.1746 9.78616 43.2337 9.78076 43.2925L18.1703 42.7967C18.1331 42.6457 18.1141 42.4908 18.1135 42.3354C18.1142 42.258 18.1194 42.1808 18.1291 42.104V42.104Z" fill="#334796"/>
<path d="M18.9169 40.7477L11.879 33.6557C11.7296 33.8356 11.5497 33.9878 11.3474 34.1052L18.4394 41.2509C18.5681 41.0566 18.7297 40.8863 18.9169 40.7477V40.7477Z" fill="#334796"/>
<path d="M28.1197 30.4789L20.9409 40.5495C21.1516 40.6494 21.3431 40.7856 21.5066 40.9518L28.6999 30.8595C28.4856 30.7678 28.2892 30.6389 28.1197 30.4789Z" fill="#334796"/>
<path d="M20.6587 44.2315L23.5046 50.0777C23.6928 49.9403 23.9039 49.8374 24.128 49.7737L21.2781 43.9185C21.0917 44.0586 20.882 44.1646 20.6587 44.2315V44.2315Z" fill="#334796"/>
<path d="M30.6329 15.8894C31.3426 15.8894 31.9179 15.3141 31.9179 14.6044C31.9179 13.8947 31.3426 13.3194 30.6329 13.3194C29.9232 13.3194 29.3479 13.8947 29.3479 14.6044C29.3479 15.3141 29.9232 15.8894 30.6329 15.8894Z" fill="#334796"/>
<path d="M44.7018 7.21386C45.4114 7.21386 45.9868 6.63855 45.9868 5.92886C45.9868 5.21917 45.4114 4.64386 44.7018 4.64386C43.9921 4.64386 43.4167 5.21917 43.4167 5.92886C43.4167 6.63855 43.9921 7.21386 44.7018 7.21386Z" fill="#334796"/>
<path d="M53.1925 21.286C53.9022 21.286 54.4775 20.7107 54.4775 20.001C54.4775 19.2913 53.9022 18.716 53.1925 18.716C52.4828 18.716 51.9075 19.2913 51.9075 20.001C51.9075 20.7107 52.4828 21.286 53.1925 21.286Z" fill="#334796"/>
<path d="M44.6222 17.1097C45.3318 17.1097 45.9072 16.5344 45.9072 15.8247C45.9072 15.115 45.3318 14.5397 44.6222 14.5397C43.9125 14.5397 43.3372 15.115 43.3372 15.8247C43.3372 16.5344 43.9125 17.1097 44.6222 17.1097Z" fill="#334796"/>
<path d="M28.7662 2.56994C29.4759 2.56994 30.0512 1.99463 30.0512 1.28494C30.0512 0.575254 29.4759 -6.10352e-05 28.7662 -6.10352e-05C28.0565 -6.10352e-05 27.4812 0.575254 27.4812 1.28494C27.4812 1.99463 28.0565 2.56994 28.7662 2.56994Z" fill="#334796"/>
<path d="M9.99081 8.21106C10.7005 8.21106 11.2758 7.63574 11.2758 6.92605C11.2758 6.21637 10.7005 5.64105 9.99081 5.64105C9.28113 5.64105 8.70581 6.21637 8.70581 6.92605C8.70581 7.63574 9.28113 8.21106 9.99081 8.21106Z" fill="#334796"/>
<path d="M1.285 26.9389C1.99469 26.9389 2.57 26.3636 2.57 25.6539C2.57 24.9442 1.99469 24.3689 1.285 24.3689C0.575315 24.3689 0 24.9442 0 25.6539C0 26.3636 0.575315 26.9389 1.285 26.9389Z" fill="#334796"/>
<path d="M11.4476 19.6717C12.1573 19.6717 12.7326 19.0963 12.7326 18.3867C12.7326 17.677 12.1573 17.1017 11.4476 17.1017C10.7379 17.1017 10.1626 17.677 10.1626 18.3867C10.1626 19.0963 10.7379 19.6717 11.4476 19.6717Z" fill="#334796"/>
<path d="M10.3534 33.6826C11.063 33.6826 11.6384 33.1072 11.6384 32.3976C11.6384 31.6879 11.063 31.1125 10.3534 31.1125C9.64367 31.1125 9.06836 31.6879 9.06836 32.3976C9.06836 33.1072 9.64367 33.6826 10.3534 33.6826Z" fill="#334796"/>
<path d="M29.4703 30.3213C30.18 30.3213 30.7553 29.7459 30.7553 29.0363C30.7553 28.3266 30.18 27.7513 29.4703 27.7513C28.7606 27.7513 28.1853 28.3266 28.1853 29.0363C28.1853 29.7459 28.7606 30.3213 29.4703 30.3213Z" fill="#334796"/>
<path d="M46.1502 29.9099C46.8599 29.9099 47.4352 29.3346 47.4352 28.6249C47.4352 27.9152 46.8599 27.3399 46.1502 27.3399C45.4406 27.3399 44.8652 27.9152 44.8652 28.6249C44.8652 29.3346 45.4406 29.9099 46.1502 29.9099Z" fill="#334796"/>
<path d="M52.4229 37.3865C53.1326 37.3865 53.7079 36.8112 53.7079 36.1015C53.7079 35.3918 53.1326 34.8165 52.4229 34.8165C51.7132 34.8165 51.1379 35.3918 51.1379 36.1015C51.1379 36.8112 51.7132 37.3865 52.4229 37.3865Z" fill="#334796"/>
<path d="M44.8648 48.4464C45.5745 48.4464 46.1498 47.871 46.1498 47.1613C46.1498 46.4517 45.5745 45.8763 44.8648 45.8763C44.1551 45.8763 43.5798 46.4517 43.5798 47.1613C43.5798 47.871 44.1551 48.4464 44.8648 48.4464Z" fill="#334796"/>
<path d="M35.9093 45.5693C36.619 45.5693 37.1943 44.994 37.1943 44.2843C37.1943 43.5746 36.619 42.9993 35.9093 42.9993C35.1996 42.9993 34.6243 43.5746 34.6243 44.2843C34.6243 44.994 35.1996 45.5693 35.9093 45.5693Z" fill="#334796"/>
<path d="M24.6676 52.9602C25.3773 52.9602 25.9526 52.3849 25.9526 51.6752C25.9526 50.9655 25.3773 50.3902 24.6676 50.3902C23.9579 50.3902 23.3826 50.9655 23.3826 51.6752C23.3826 52.3849 23.9579 52.9602 24.6676 52.9602Z" fill="#334796"/>
<path d="M20.0938 43.6205C20.8035 43.6205 21.3788 43.0452 21.3788 42.3355C21.3788 41.6258 20.8035 41.0505 20.0938 41.0505C19.3842 41.0505 18.8088 41.6258 18.8088 42.3355C18.8088 43.0452 19.3842 43.6205 20.0938 43.6205Z" fill="#334796"/>
<path d="M7.81161 44.3993C8.5213 44.3993 9.09662 43.8239 9.09662 43.1143C9.09662 42.4046 8.5213 41.8293 7.81161 41.8293C7.10193 41.8293 6.52661 42.4046 6.52661 43.1143C6.52661 43.8239 7.10193 44.3993 7.81161 44.3993Z" fill="#334796"/>
<path d="M20.7367 9.75311C21.4464 9.75311 22.0217 9.17779 22.0217 8.46811C22.0217 7.75842 21.4464 7.18311 20.7367 7.18311C20.027 7.18311 19.4517 7.75842 19.4517 8.46811C19.4517 9.17779 20.027 9.75311 20.7367 9.75311Z" fill="#334796"/>
<path d="M66.2817 20.1753V29H63.3604V7.70264H70.7319C73.6886 7.70264 75.8128 8.10124 77.1045 8.89844C78.6888 9.88737 79.481 11.4767 79.481 13.6665C79.481 16.6434 78.0329 18.5859 75.1367 19.4941C75.6413 19.807 76.0096 20.0996 76.2417 20.3721C76.4839 20.6445 76.9279 21.3156 77.5737 22.3853L81.7212 29H78.4062L75.394 23.7778C75.0812 23.2329 74.6725 22.6174 74.168 21.9312C73.6735 21.245 73.3203 20.8161 73.1084 20.6445C72.735 20.3317 72.1043 20.1753 71.2163 20.1753H66.2817ZM66.2817 18.0562H69.8994C72.3919 18.0562 74.0822 17.7686 74.9702 17.1934C75.9894 16.5374 76.499 15.4224 76.499 13.8481C76.499 12.2537 75.8784 11.1689 74.6372 10.5938C73.7492 10.1901 72.1699 9.98828 69.8994 9.98828H66.2817V18.0562ZM87.1686 29V7.70264H102.214L102.033 10.0488H90.09V16.5122H100.126L99.9288 18.7524H90.09V26.6538H102.669L102.442 29H87.1686ZM123.011 25.6094L124.206 27.6982C122.511 28.8587 120.321 29.439 117.637 29.439C113.964 29.439 111.174 28.4399 109.266 26.4419C107.511 24.5952 106.633 22.0068 106.633 18.6768C106.633 14.6605 107.879 11.613 110.371 9.53418C112.188 8.02051 114.67 7.26367 117.819 7.26367C120.2 7.26367 122.279 7.77832 124.055 8.80762L122.965 10.9116C121.421 10.0236 119.696 9.57959 117.788 9.57959C115.165 9.57959 113.162 10.3717 111.779 11.9561C110.356 13.5807 109.645 15.7806 109.645 18.5557C109.645 21.1794 110.26 23.2279 111.491 24.7012C112.844 26.3158 114.928 27.123 117.743 27.123C119.802 27.123 121.557 26.6185 123.011 25.6094ZM130.547 29V7.70264H133.468V29H130.547ZM142.306 29V7.70264H148.618C152.039 7.70264 154.431 8.18197 155.793 9.14062C157.408 10.2708 158.215 11.951 158.215 14.1812C158.215 16.6232 157.246 18.4295 155.309 19.6001C153.916 20.4377 151.646 20.8564 148.497 20.8564H145.228V29H142.306ZM145.228 18.5708H148.437C151.06 18.5708 152.836 18.2227 153.765 17.5264C154.209 17.1833 154.562 16.7191 154.824 16.1338C155.097 15.5485 155.233 14.9279 155.233 14.272C155.233 13.5454 155.072 12.8693 154.749 12.2437C154.426 11.618 153.987 11.1437 153.432 10.8208C152.493 10.2658 150.828 9.98828 148.437 9.98828H145.228V18.5708ZM164.298 29V7.70264H179.344L179.162 10.0488H167.219V16.5122H177.255L177.058 18.7524H167.219V26.6538H179.798L179.571 29H164.298ZM184.761 28.1069L185.715 25.7607C187.41 26.6689 189.358 27.123 191.557 27.123C193.687 27.123 195.276 26.7547 196.326 26.0181C196.699 25.7456 197.002 25.3823 197.234 24.9282C197.476 24.464 197.597 23.9998 197.597 23.5356C197.597 22.7183 197.34 22.0321 196.825 21.4771C196.472 21.0835 196.023 20.7555 195.478 20.4932C194.943 20.2308 193.934 19.8423 192.451 19.3276C189.978 18.48 188.182 17.6424 187.062 16.8149C185.831 15.8966 185.215 14.6201 185.215 12.9854C185.215 11.6937 185.578 10.5837 186.305 9.65527C187.556 8.06087 189.711 7.26367 192.768 7.26367C195.11 7.26367 197.203 7.71273 199.05 8.61084L198.021 10.8057C196.507 9.98828 194.802 9.57959 192.905 9.57959C191.492 9.57959 190.347 9.82682 189.469 10.3213C188.53 10.846 188.061 11.6685 188.061 12.7886C188.061 13.7069 188.424 14.4183 189.151 14.9229C189.575 15.2256 190.084 15.5031 190.68 15.7554C191.275 15.9976 192.355 16.3861 193.919 16.9209C195.473 17.4456 196.633 17.9098 197.4 18.3135C198.167 18.7171 198.793 19.1864 199.277 19.7212C200.125 20.6799 200.549 21.8807 200.549 23.3237C200.549 24.7567 200.12 25.9827 199.262 27.002C197.89 28.6266 195.377 29.439 191.724 29.439C188.888 29.439 186.567 28.995 184.761 28.1069Z" fill="#334796"/>
<path d="M63.8672 44V38.5039H65.4961C66.3789 38.5039 66.9961 38.6276 67.3477 38.875C67.7643 39.1667 67.9727 39.6003 67.9727 40.1758C67.9727 40.806 67.7227 41.2721 67.2227 41.5742C66.8633 41.7904 66.2773 41.8984 65.4648 41.8984H64.6211V44H63.8672ZM64.6211 41.3086H65.4492C66.1263 41.3086 66.5846 41.2188 66.8242 41.0391C66.9388 40.9505 67.0299 40.8307 67.0977 40.6797C67.168 40.5286 67.2031 40.3685 67.2031 40.1992C67.2031 40.0117 67.1615 39.8372 67.0781 39.6758C66.9948 39.5143 66.8815 39.3919 66.7383 39.3086C66.4961 39.1654 66.0664 39.0938 65.4492 39.0938H64.6211V41.3086ZM70.5491 40.0391C71.2288 40.0391 71.7522 40.2266 72.1194 40.6016C72.286 40.7708 72.4149 40.9857 72.5061 41.2461C72.5998 41.5039 72.6467 41.7812 72.6467 42.0781C72.6467 42.474 72.566 42.8307 72.4045 43.1484C72.0764 43.7917 71.4475 44.1133 70.5178 44.1133C69.8173 44.1133 69.2834 43.9258 68.9163 43.5508C68.7496 43.3789 68.6194 43.1641 68.5256 42.9062C68.4345 42.6484 68.3889 42.3737 68.3889 42.082C68.3889 41.681 68.4696 41.3216 68.6311 41.0039C68.9592 40.3607 69.5985 40.0391 70.5491 40.0391ZM70.5413 40.6172C70.023 40.6172 69.6493 40.7734 69.4202 41.0859C69.2353 41.3385 69.1428 41.6706 69.1428 42.082C69.1428 42.4831 69.2353 42.8112 69.4202 43.0664C69.6493 43.3789 70.0152 43.5352 70.5178 43.5352C71.0204 43.5352 71.3863 43.3789 71.6155 43.0664C71.8004 42.8112 71.8928 42.4818 71.8928 42.0781C71.8928 41.6719 71.8004 41.3411 71.6155 41.0859C71.3863 40.7734 71.0282 40.6172 70.5413 40.6172ZM74.3755 44L72.8598 40.1523H73.6489L74.7505 43.1406L75.9341 40.1523H76.5395L77.7075 43.1406L78.8208 40.1523H79.563L78.0161 44H77.3716L76.2075 41.0391L75.0356 44H74.3755ZM83.737 42.2109H80.5339C80.5391 42.5052 80.6042 42.7565 80.7292 42.9648C80.8516 43.1706 81.0235 43.3216 81.2448 43.418C81.4688 43.5117 81.7618 43.5586 82.1238 43.5586C82.3711 43.5586 82.5873 43.5312 82.7722 43.4766C82.9597 43.4219 83.1706 43.3242 83.405 43.1836L83.6706 43.6875C83.1967 43.9714 82.6303 44.1133 81.9714 44.1133C81.2474 44.1133 80.7006 43.9401 80.3308 43.5938C79.9662 43.2526 79.7839 42.7591 79.7839 42.1133C79.7839 41.4987 79.9454 41.0091 80.2683 40.6445C80.6277 40.2409 81.1459 40.0391 81.823 40.0391C82.6198 40.0391 83.1771 40.3112 83.4948 40.8555C83.6641 41.1445 83.7488 41.4987 83.7488 41.918C83.7488 41.9883 83.7448 42.0859 83.737 42.2109ZM83.0417 41.707C83.0105 41.4492 82.9519 41.2487 82.8659 41.1055C82.6602 40.7565 82.3139 40.582 81.8269 40.582C81.4467 40.582 81.1537 40.6719 80.948 40.8516C80.7448 41.0286 80.6094 41.3138 80.5417 41.707H83.0417ZM84.747 44V40.1523H85.3291L85.4267 40.8594C86.0179 40.3646 86.6572 40.1185 87.3447 40.1211L87.2939 40.7383C86.9606 40.7461 86.6546 40.8112 86.3759 40.9336C86.0061 41.0924 85.7067 41.2904 85.4775 41.5273V44H84.747ZM91.4992 42.2109H88.2961C88.3013 42.5052 88.3664 42.7565 88.4914 42.9648C88.6138 43.1706 88.7857 43.3216 89.007 43.418C89.231 43.5117 89.524 43.5586 89.8859 43.5586C90.1333 43.5586 90.3495 43.5312 90.5344 43.4766C90.7219 43.4219 90.9328 43.3242 91.1672 43.1836L91.4328 43.6875C90.9589 43.9714 90.3924 44.1133 89.7336 44.1133C89.0096 44.1133 88.4628 43.9401 88.093 43.5938C87.7284 43.2526 87.5461 42.7591 87.5461 42.1133C87.5461 41.4987 87.7076 41.0091 88.0305 40.6445C88.3898 40.2409 88.9081 40.0391 89.5852 40.0391C90.382 40.0391 90.9393 40.3112 91.257 40.8555C91.4263 41.1445 91.5109 41.4987 91.5109 41.918C91.5109 41.9883 91.507 42.0859 91.4992 42.2109ZM90.8039 41.707C90.7727 41.4492 90.7141 41.2487 90.6281 41.1055C90.4224 40.7565 90.076 40.582 89.5891 40.582C89.2089 40.582 88.9159 40.6719 88.7102 40.8516C88.507 41.0286 88.3716 41.3138 88.3039 41.707H90.8039ZM95.3022 40.2305V38.3438L96.0327 38.1992V44H95.4662L95.3569 43.5312C94.9767 43.9193 94.4819 44.1133 93.8725 44.1133C93.2449 44.1133 92.7827 43.9193 92.4858 43.5312C92.241 43.2083 92.1186 42.7695 92.1186 42.2148C92.1186 41.5951 92.284 41.0911 92.6147 40.7031C92.9949 40.2604 93.5353 40.0391 94.2358 40.0391C94.6551 40.0391 95.0105 40.1029 95.3022 40.2305ZM95.3022 40.8516C95.0418 40.6953 94.7215 40.6172 94.3412 40.6172C93.8204 40.6172 93.4376 40.7839 93.1928 41.1172C92.9793 41.4115 92.8725 41.776 92.8725 42.2109C92.8725 42.6172 92.9623 42.9349 93.142 43.1641C93.3321 43.4115 93.6212 43.5352 94.0092 43.5352C94.4415 43.5352 94.7892 43.3906 95.0522 43.1016C95.1485 42.9948 95.2136 42.8919 95.2475 42.793C95.284 42.6914 95.3022 42.5534 95.3022 42.3789V40.8516ZM99.2636 43.7266V38.3438L99.9941 38.1992V40.5625C100.374 40.2135 100.843 40.0391 101.4 40.0391C101.978 40.0391 102.419 40.2096 102.721 40.5508C103.025 40.8945 103.178 41.3815 103.178 42.0117C103.178 42.6445 103.008 43.151 102.67 43.5312C102.323 43.9193 101.805 44.1133 101.115 44.1133C100.514 44.1133 99.8964 43.9844 99.2636 43.7266ZM99.9941 43.3047C100.281 43.4583 100.628 43.5352 101.037 43.5352C101.529 43.5352 101.889 43.3802 102.115 43.0703C102.318 42.7917 102.42 42.4453 102.42 42.0312C102.42 41.6172 102.333 41.2799 102.158 41.0195C102.072 40.8945 101.952 40.7969 101.799 40.7266C101.64 40.6536 101.468 40.6172 101.283 40.6172C101.08 40.6172 100.886 40.6562 100.701 40.7344C100.519 40.8099 100.366 40.9154 100.244 41.0508C100.148 41.1576 100.081 41.2617 100.045 41.3633C100.011 41.4622 99.9941 41.599 99.9941 41.7734V43.3047ZM105.09 44L103.371 40.1523H104.176L105.492 43.2031L106.899 40.1523H107.676L104.926 45.8867L104.227 45.6406L105.09 44Z" fill="#334796"/>
<path d="M207.033 43.0258L202.976 43.0551V36.1311L201.832 36.1022V43.9583H207.035L207.033 43.0258Z" fill="#334796"/>
<path d="M195.36 36.5548C194.744 36.1856 194.001 36.0006 193.131 36C191.742 36 190.7 36.4007 190.004 37.2022C189.417 37.8805 189.123 38.8121 189.123 39.9969C189.123 41.1495 189.417 42.0758 190.004 42.7757C190.675 43.5695 191.695 43.9666 193.065 43.967C194.439 43.967 195.462 43.5699 196.132 42.7757C196.72 42.0764 197.014 41.1467 197.013 39.9866C197.013 38.363 196.462 37.2191 195.36 36.5548ZM195.256 42.1904C194.778 42.8175 194.047 43.131 193.066 43.131C192.088 43.131 191.359 42.8175 190.88 42.1904C190.461 41.6385 190.251 40.9069 190.251 39.9956C190.251 39.0595 190.461 38.3239 190.88 37.7887C191.377 37.1554 192.121 36.8389 193.113 36.8391C193.734 36.8391 194.265 36.9853 194.705 37.2778C195.492 37.8015 195.885 38.7044 195.885 39.9866C195.885 40.9018 195.676 41.6358 195.256 42.1885V42.1904Z" fill="#334796"/>
<path d="M182.82 36.5548C182.204 36.1856 181.461 36.0006 180.591 36C179.202 36 178.16 36.4007 177.464 37.2022C176.877 37.8805 176.583 38.8121 176.583 39.9969C176.583 41.1495 176.877 42.0758 177.464 42.7757C178.135 43.5695 179.155 43.9666 180.525 43.967C181.899 43.967 182.922 43.5699 183.592 42.7757C184.18 42.0764 184.474 41.1467 184.474 39.9866C184.474 38.363 183.922 37.2191 182.82 36.5548ZM182.716 42.1904C182.237 42.8175 181.507 43.131 180.526 43.131C179.545 43.131 178.816 42.8175 178.34 42.1904C177.921 41.6385 177.711 40.9069 177.712 39.9956C177.712 39.0595 177.921 38.3239 178.34 37.7887C178.837 37.1554 179.581 36.8389 180.573 36.8391C181.195 36.8391 181.726 36.9853 182.165 37.2778C182.951 37.8015 183.345 38.7044 183.346 39.9866C183.347 40.9018 183.137 41.6358 182.716 42.1885V42.1904Z" fill="#334796"/>
<path d="M171.99 37.1564C171.895 36.9082 171.748 36.6835 171.558 36.4976C171.458 36.4023 171.345 36.32 171.224 36.2525C171.164 36.2182 171.102 36.1884 171.037 36.1635C170.707 36.0156 170.321 36.0592 169.967 36.0592H166.502V43.9676H167.575V36.9817C167.879 36.9898 168.182 36.9933 168.483 36.9973C168.857 37.002 169.227 36.9973 169.585 37.0098C169.764 37.0154 169.94 37.025 170.105 37.0428C170.289 37.0633 170.537 37.0786 170.694 37.1863C170.735 37.2106 170.774 37.2399 170.808 37.2735C170.986 37.4292 171.044 37.6994 171.054 37.9273C171.06 38.0657 171.05 38.2044 171.023 38.3402C170.997 38.4635 170.952 38.582 170.89 38.6914C170.823 38.8012 170.739 38.8998 170.641 38.9838C170.434 39.1628 170.152 39.3082 169.84 39.4178C169.529 39.5274 169.189 39.6046 168.844 39.6743L168.957 40.5816C169.155 40.562 169.351 40.5474 169.549 40.51C169.648 40.4935 169.747 40.4789 169.847 40.454C169.947 40.4291 170.047 40.4132 170.147 40.3796C170.545 40.2662 170.953 40.0931 171.323 39.7979C171.513 39.6432 171.677 39.4592 171.809 39.2528C171.938 39.0416 172.031 38.81 172.082 38.5678C172.132 38.3383 172.151 38.1032 172.138 37.8688C172.127 37.625 172.077 37.3844 171.99 37.1564V37.1564Z" fill="#334796"/>
<path d="M149.206 36.117L145.85 43.9891L146.915 44L149.754 37.1358L151.162 40.6161H149.238L148.879 41.5197H151.521L152.577 44H153.758L150.327 36.117H149.206Z" fill="#334796"/>
<path d="M136.849 36.987H139.34V43.9999H140.475V36.987H142.966V36.0993H136.849V36.987Z" fill="#334796"/>
<path d="M128.497 40.4466H132.407L132.404 39.6075H128.502V36.9746H132.642V36.0988H127.403V43.9998H132.746V43.104H128.497V40.4466Z" fill="#334796"/>
<path d="M118.235 42.511L115.348 36.117H114.047L114 43.9971H115.022L114.984 37.7541L117.756 43.871H118.611L121.374 37.6884L121.388 43.9971H122.386V36.117H121.057L118.235 42.511Z" fill="#334796"/>
</g>
<defs>
<clipPath id="clip0_13_404">
<rect width="270" height="56" fill="white"/>
</clipPath>
</defs>
</svg>
